<svg width="276" height="82" viewBox="0 0 276 82" fill="none" xmlns="http://www.w3.org/2000/svg">
  <rect width="276" height="82" fill="#F9AD1D" fill-opacity="0.8"/>
  <path fill-rule="evenodd" clip-rule="evenodd" d="M148.36 43.0084C144 49.0806 142.453 50.8113 142.711 54.3263C142.969 57.8412 142.231 58.8077 140.474 58.9808C138.717 59.1539 135.419 58.2477 134.84 52.4944C134.59 50.0052 136.469 45.1047 136.469 45.1047L123.32 45.0979C121.458 45.0979 120 44.3443 120 41.9427C120 39.6927 122.63 39.016 122.63 39.016C121.587 38.5719 120.925 37.5826 120.947 36.5015C120.941 34.9763 122.238 33.7323 123.852 33.7168C122.748 33.2975 122.118 32.1939 122.352 31.0915C122.552 29.7703 123.634 28.7234 125.026 28.5032C124.115 27.8933 123.738 26.788 124.101 25.7894C124.691 24.4709 126.249 23.0173 129.75 23.0173H146.1C147.073 22.9009 148.018 23.3802 148.453 24.2113V42.2733C148.459 42.5213 148.428 42.7688 148.36 43.0084ZM156 44.1693H149.603V23.0212H156V44.1693Z" fill="white"/>
</svg>
