<svg width="23" height="23" viewBox="0 0 23 23" fill="none" xmlns="http://www.w3.org/2000/svg">
  <path fill-rule="evenodd" clip-rule="evenodd" d="M18.225 13.0052C15.5 16.8003 14.5331 17.8821 14.6945 20.0789C14.8558 22.2758 14.3943 22.8798 13.2963 22.988C12.1983 23.0962 10.1368 22.5298 9.77485 18.934C9.61864 17.3783 10.7931 14.3154 10.7931 14.3154L2.57505 14.3112C1.41152 14.3112 0.499969 13.8402 0.499969 12.3392C0.499969 10.933 2.14371 10.51 2.14371 10.51C1.49193 10.2325 1.07812 9.61412 1.09202 8.93847C1.08809 7.98516 1.89902 7.20768 2.9074 7.198C2.21762 6.93596 1.8236 6.24617 1.97014 5.5572C2.09522 4.73144 2.77122 4.07715 3.64152 3.93949C3.07162 3.55832 2.83597 2.86747 3.06297 2.24338C3.43196 1.41933 4.40586 0.510813 6.59344 0.510813L16.8126 0.510813C17.4208 0.438046 18.011 0.737614 18.2828 1.25708L18.2828 12.5458C18.2871 12.7008 18.2676 12.8555 18.225 13.0052ZM23 13.7308H19.0022L19.0022 0.513248H23L23 13.7308Z" fill="white"/>
</svg>
