<svg width="276" height="82" viewBox="0 0 276 82" fill="none" xmlns="http://www.w3.org/2000/svg">
  <rect width="276" height="82" fill="#3CBBB4" fill-opacity="0.8"/>
  <path fill-rule="evenodd" clip-rule="evenodd" d="M127.64 38.9916C132 32.9194 133.547 31.1887 133.289 27.6737C133.031 24.1588 133.769 23.1923 135.526 23.0192C137.283 22.8461 140.581 23.7523 141.16 29.5056C141.41 31.9948 139.531 36.8953 139.531 36.8953L152.68 36.9021C154.542 36.9021 156 37.6557 156 40.0573C156 42.3073 153.37 42.984 153.37 42.984C154.413 43.4281 155.075 44.4174 155.053 45.4985C155.059 47.0237 153.762 48.2677 152.148 48.2832C153.252 48.7025 153.882 49.8061 153.648 50.9085C153.448 52.2297 152.366 53.2766 150.974 53.4968C151.885 54.1067 152.262 55.212 151.899 56.2106C151.309 57.5291 149.751 58.9827 146.25 58.9827H129.9C128.927 59.0991 127.982 58.6198 127.547 57.7887V39.7267C127.541 39.4787 127.572 39.2312 127.64 38.9916ZM120 37.8307H126.397V58.9788H120V37.8307Z" fill="white"/>
</svg>
