<svg width="23" height="23" viewBox="0 0 23 23" fill="none" xmlns="http://www.w3.org/2000/svg">
  <path fill-rule="evenodd" clip-rule="evenodd" d="M4.77504 9.99477C7.50003 6.19965 8.46686 5.11794 8.30551 2.92108C8.14415 0.724227 8.60571 0.120168 9.70368 0.0119967C10.8017 -0.0961748 12.8632 0.470207 13.2252 4.066C13.3814 5.62172 12.2069 8.68456 12.2069 8.68456L20.4249 8.68881C21.5885 8.68881 22.5 9.15978 22.5 10.6608C22.5 12.067 20.8563 12.49 20.8563 12.49C21.5081 12.7675 21.9219 13.3859 21.908 14.0615C21.9119 15.0148 21.101 15.7923 20.0926 15.802C20.7824 16.064 21.1764 16.7538 21.0299 17.4428C20.9048 18.2686 20.2288 18.9228 19.3585 19.0605C19.9284 19.4417 20.164 20.1325 19.937 20.7566C19.568 21.5807 18.5941 22.4892 16.4066 22.4892H6.18735C5.57916 22.562 4.98899 22.2624 4.71718 21.7429V10.4542C4.71295 10.2992 4.73243 10.1445 4.77504 9.99477ZM0 9.26917H3.99781V22.4868H0V9.26917Z" fill="white"/>
</svg>
