<svg width="45" height="45" viewBox="0 0 45 45" fill="none" xmlns="http://www.w3.org/2000/svg">
  <rect width="45" height="45" fill="#FBBD4A"/>
  <path fill-rule="evenodd" clip-rule="evenodd" d="M29.4067 23.8389C26.5 27.887 25.4687 29.0409 25.6408 31.3842C25.8129 33.7275 25.3206 34.3718 24.1494 34.4872C22.9783 34.6026 20.7793 33.9984 20.3932 30.1629C20.2266 28.5035 21.4793 25.2365 21.4793 25.2365L12.7134 25.2319C11.4723 25.2319 10.5 24.7296 10.5 23.1285C10.5 21.6285 12.2533 21.1773 12.2533 21.1773C11.5581 20.8813 11.1167 20.2217 11.1315 19.501C11.1273 18.4842 11.9923 17.6549 13.0679 17.6445C12.3322 17.365 11.9119 16.6292 12.0682 15.8943C12.2016 15.0135 12.9227 14.3156 13.851 14.1688C13.2431 13.7622 12.9917 13.0253 13.2339 12.3596C13.6275 11.4806 14.6663 10.5115 16.9997 10.5115L27.9002 10.5115C28.5489 10.4339 29.1784 10.7535 29.4684 11.3075L29.4684 23.3489C29.4729 23.5142 29.4521 23.6792 29.4067 23.8389ZM34.5 24.6129H30.2357L30.2357 10.5141H34.5V24.6129Z" fill="white"/>
</svg>
