<svg width="45" height="45" viewBox="0 0 45 45" fill="none" xmlns="http://www.w3.org/2000/svg">
  <rect width="45" height="45" fill="#3CBBB4" fill-opacity="0.8"/>
  <path fill-rule="evenodd" clip-rule="evenodd" d="M15.5933 21.1611C18.5 17.113 19.5313 15.9591 19.3592 13.6158C19.1871 11.2725 19.6794 10.6282 20.8506 10.5128C22.0217 10.3974 24.2207 11.0016 24.6068 14.8371C24.7734 16.4965 23.5206 19.7635 23.5206 19.7635L32.2866 19.7681C33.5277 19.7681 34.5 20.2704 34.5 21.8715C34.5 23.3715 32.7467 23.8227 32.7467 23.8227C33.4419 24.1187 33.8833 24.7783 33.8685 25.499C33.8727 26.5158 33.0077 27.3451 31.9321 27.3555C32.6678 27.635 33.0881 28.3708 32.9318 29.1057C32.7984 29.9865 32.0773 30.6844 31.149 30.8312C31.7569 31.2378 32.0083 31.9747 31.7661 32.6404C31.3725 33.5194 30.3337 34.4885 28.0003 34.4885L17.0998 34.4885C16.4511 34.5661 15.8216 34.2465 15.5316 33.6925L15.5316 21.6511C15.5271 21.4858 15.5479 21.3208 15.5933 21.1611ZM10.5 20.3871L14.7643 20.3871L14.7643 34.4859L10.5 34.4859L10.5 20.3871Z" fill="white"/>
</svg>
